<?xml version="1.0" encoding="UTF-8" standalone="no"?>
<svg
   width="840"
   height="220"
   viewBox="0 0 840 220"
   role="img"
   aria-label="PanoPilot logo"
   version="1.1"
   id="svg9"
   xmlns:xlink="http://www.w3.org/1999/xlink"
   xmlns="http://www.w3.org/2000/svg"
   xmlns:svg="http://www.w3.org/2000/svg">
  <defs
     id="defs5">
    <linearGradient
       id="pp-blue"
       x1="0"
       y1="0"
       x2="1"
       y2="1">
      <stop
         offset="0%"
         stop-color="#2ecdf3"
         id="stop1" />
      <stop
         offset="55%"
         stop-color="#2b86ff"
         id="stop2" />
      <stop
         offset="100%"
         stop-color="#173d9e"
         id="stop3" />
    </linearGradient>
    <linearGradient
       id="pp-deep"
       x1="73.434274"
       y1="1.9064667"
       x2="271.70681"
       y2="200.17901"
       gradientTransform="matrix(0.95323336,0,0,1.0490611,18,22)"
       gradientUnits="userSpaceOnUse">
      <stop
         offset="0%"
         stop-color="#1160df"
         id="stop4" />
      <stop
         offset="100%"
         stop-color="#0a2370"
         id="stop5" />
    </linearGradient>
    <linearGradient
       xlink:href="#pp-blue"
       id="linearGradient9"
       x1="-2.3676654"
       y1="99.676247"
       x2="159.81741"
       y2="261.86133"
       gradientTransform="matrix(1.6894279,0,0,0.59191635,18,22)"
       gradientUnits="userSpaceOnUse" />
    <linearGradient
       xlink:href="#pp-blue"
       id="linearGradient10"
       x1="138.31019"
       y1="56.864934"
       x2="228.26018"
       y2="146.81492"
       gradientTransform="matrix(1.0339079,0,0,0.96720415,18,22)"
       gradientUnits="userSpaceOnUse" />
    <linearGradient
       xlink:href="#pp-blue"
       id="linearGradient11"
       x1="159.36248"
       y1="-0.17073836"
       x2="271.07596"
       y2="111.54274"
       gradientTransform="matrix(1.6188526,0,0,0.61772146,323,80)"
       gradientUnits="userSpaceOnUse" />
  </defs>
  <path
     d="m 110,24 h 63 c 58,0 104,46 104,104 0,58 -46,104 -104,104 H 110 C 98,232 88,222 88,210 V 46 C 88,34 98,24 110,24 Z m 52,48 h -26 v 112 h 26 c 34,0 61,-25 61,-56 0,-31 -27,-56 -61,-56 z"
     fill="url(#pp-deep)"
     id="path5"
     style="fill:url(#pp-deep)" />
  <path
     style="fill:url(#linearGradient9)"
     d="M 151,81 C 114.91278,81 82.251543,85.384845 57.867187,92.814453 45.67501,96.529257 35.537697,100.94279 27.798828,106.51758 20.059959,112.09237 14,119.62428 14,129 c 0,9.37572 6.059959,16.90763 13.798828,22.48242 7.738869,5.57479 17.876182,9.98832 30.068359,13.70313 C 82.251543,172.61516 114.91278,177 151,177 c 36.08722,0 68.74846,-4.38484 93.13281,-11.81445 12.19218,-3.71481 22.32949,-8.12834 30.06836,-13.70313 C 281.94004,145.90763 288,138.37572 288,129 288,119.62428 281.94004,112.09237 274.20117,106.51758 266.4623,100.94279 256.32499,96.529257 244.13281,92.814453 219.74846,85.384845 187.08722,81 151,81 Z m 0,18 c 34.60523,0 65.94419,4.34563 87.88672,11.03125 10.97126,3.34281 19.57753,7.33284 24.79297,11.08984 C 268.89512,124.8781 270,127.60617 270,129 c 0,1.39383 -1.10488,4.1219 -6.32031,7.87891 -5.21544,3.757 -13.82171,7.74703 -24.79297,11.08984 C 216.94419,154.65437 185.60523,159 151,159 116.39477,159 85.055814,154.65437 63.113281,147.96875 52.142015,144.62594 43.535748,140.63591 38.320312,136.87891 33.104877,133.1219 32,130.39383 32,129 c 0,-1.39383 1.104877,-4.1219 6.320312,-7.87891 5.215436,-3.757 13.821703,-7.74703 24.792969,-11.08984 C 85.055814,103.34563 116.39477,99 151,99 Z"
     id="ellipse5" />
  <path
     d="m 192,104 -31,13 32,10 13,37 16,-33 32,-13 -33,-10 -12,-31 z"
     fill="url(#pp-blue)"
     id="path6"
     style="fill:url(#linearGradient10)" />
  <path
     d="m 327.98437,148 h 15.16797 v -19.98047 h 10.61328 c 14.69532,0 23.76172,-8.72265 23.76172,-21.91406 0,-13.10547 -8.89453,-22.128908 -23.33203,-22.128908 h -26.21094 z m 15.16797,-31.96875 V 96.265625 h 7.82032 c 7.13281,0 10.82812,3.824215 10.82812,9.839845 0,5.92969 -3.69531,9.92578 -10.78516,9.92578 z m 52.01172,32.82812 c 6.66016,0 11.30078,-2.66406 13.92188,-7.60546 h 0.38672 V 148 h 14.09375 v -32.61328 c 0,-10.3125 -9.41016,-16.027345 -21.35547,-16.027345 -12.03125,0 -19.59375,5.628905 -21.48438,13.835935 l 13.57813,1.76172 c 0.8164,-3.00781 3.60937,-4.9414 7.77734,-4.9414 4.08203,0 6.53125,1.89062 6.53125,5.19921 v 0.17188 c 0,2.96484 -3.26562,3.56641 -11.38672,4.25391 -9.71094,0.8164 -17.875,4.38281 -17.875,15.03906 0,9.49609 6.57422,14.17968 15.8125,14.17968 z m 4.55469,-9.92578 c -3.60938,0 -6.1875,-1.71875 -6.1875,-4.9414 0,-3.17969 2.49219,-5.07032 6.91797,-5.71485 2.79297,-0.42968 6.57422,-1.07421 8.29297,-1.97656 v 4.59766 c 0,4.72656 -3.9961,8.03515 -9.02344,8.03515 z m 46.76953,-18.34765 c 0,-5.58594 3.30859,-8.89453 8.20703,-8.89453 4.89844,0 7.82031,3.22265 7.82031,8.63672 V 148 h 14.9961 v -30.59375 c 0,-10.87109 -6.57422,-18.046875 -16.62891,-18.046875 -7.77734,0 -12.5039,4.296875 -15.03906,10.957035 L 445.58594,99.960937 H 431.49219 V 148 h 14.99609 z m 61.20703,28.3164 c 14.9961,0 24.10547,-9.96875 24.10547,-24.75 0,-14.82421 -9.10937,-24.792965 -24.10547,-24.792965 -15.03906,0 -24.14844,9.968755 -24.14844,24.792965 0,14.78125 9.10938,24.75 24.14844,24.75 z m 0,-11.47265 c -5.75781,0 -8.85156,-5.3711 -8.85156,-13.36328 0,-8.03516 3.09375,-13.23438 8.85156,-13.23438 5.75781,0 8.85156,5.19922 8.85156,13.23438 0,7.99218 -3.09375,13.36328 -8.85156,13.36328 z"
     id="text6"
     fill="#eef3ff"
     aria-label="Pano" />
  <path
     d="m 580.98437,148 h 15.16797 v -19.98047 h 10.61328 c 14.69532,0 23.76172,-8.72265 23.76172,-21.91406 0,-13.10547 -8.89453,-22.128908 -23.33203,-22.128908 h -26.21094 z m 15.16797,-31.96875 V 96.265625 h 7.82032 c 7.13281,0 10.82812,3.824215 10.82812,9.839845 0,5.92969 -3.69531,9.92578 -10.78516,9.92578 z M 636.30469,148 h 14.99609 V 99.960937 h -14.99609 z m 7.47656,-53.667969 c 4.29687,0 7.77734,-3.222656 7.77734,-7.21875 0,-3.996094 -3.48047,-7.21875 -7.77734,-7.21875 -4.25391,0 -7.73438,3.222656 -7.73438,7.21875 0,3.996094 3.48047,7.21875 7.73438,7.21875 z m 30.44141,-10.355469 h -14.9961 V 148 h 14.9961 z m 30.22656,64.925778 c 14.99609,0 24.10547,-9.96875 24.10547,-24.75 0,-14.82421 -9.10938,-24.792965 -24.10547,-24.792965 -15.03906,0 -24.14844,9.968755 -24.14844,24.792965 0,14.78125 9.10938,24.75 24.14844,24.75 z m 0,-11.47265 c -5.75781,0 -8.85156,-5.3711 -8.85156,-13.36328 0,-8.03516 3.09375,-13.23438 8.85156,-13.23438 5.75781,0 8.85156,5.19922 8.85156,13.23438 0,7.99218 -3.09375,13.36328 -8.85156,13.36328 z m 56.09375,-37.468753 h -8.63672 V 88.53125 h -14.99609 v 11.429687 h -6.35938 v 11.128903 h 6.35938 v 23.54688 c 0,9.15234 5.37109,14.05078 15.55468,14.05078 2.83594,0 6.01563,-0.30078 9.36719,-1.24609 l -1.93359,-10.91407 c -0.81641,0.21485 -3.13672,0.51563 -4.16797,0.51563 -2.70703,0 -3.82422,-1.20313 -3.82422,-3.73828 v -22.21485 h 8.63672 z"
     id="text7"
     fill="url(#linearGradient11)"
     aria-label="Pilot" />
  <path
     d="m 326.61133,185 h 2.22656 v -5.49805 h 2.96875 c 0.0391,0 0.0879,0 0.12695,0 L 334.88281,185 h 2.5293 l -3.20313,-5.87891 c 1.76758,-0.66406 2.65625,-2.14843 2.65625,-4.10156 0,-2.68555 -1.66992,-4.57031 -5.03906,-4.57031 h -5.21484 z m 2.22656,-7.40234 v -5.24414 h 2.73438 c 2.14843,0 3.0371,1.02539 3.0371,2.66601 0,1.63086 -0.88867,2.57813 -3.01757,2.57813 z M 342.57031,185 h 9.21875 v -1.91406 h -6.99219 v -4.48242 h 6.44532 v -1.9043 h -6.44532 v -4.33594 h 6.9336 v -1.91406 h -9.16016 z m 15.06055,0 h 2.22656 v -6.05469 h 6.17188 v -1.90429 h -6.17188 v -4.67774 h 6.82617 v -1.91406 h -9.05273 z m 14.78711,0 h 2.22656 v -5.49805 h 2.96875 c 0.0391,0 0.0879,0 0.12695,0 L 380.68945,185 h 2.5293 l -3.20313,-5.87891 c 1.76758,-0.66406 2.65625,-2.14843 2.65625,-4.10156 0,-2.68555 -1.66992,-4.57031 -5.03906,-4.57031 h -5.21484 z m 2.22656,-7.40234 v -5.24414 h 2.73438 c 2.14843,0 3.03711,1.02539 3.03711,2.66601 0,1.63086 -0.88868,2.57813 -3.01758,2.57813 z M 387.26367,185 h 2.41211 l 1.29883,-3.83789 h 5.72266 L 398.03516,185 h 2.41211 l -5.27344,-14.55078 h -2.73438 z m 4.3457,-5.69336 0.81055,-2.40234 c 0.36133,-1.11328 0.81055,-2.62696 1.37695,-4.70703 0.57618,2.06054 1.01563,3.54492 1.40625,4.70703 l 0.83985,2.40234 z M 405.55664,185 h 2.16797 v -7.83203 c 0,-1.11328 -0.0488,-2.97852 -0.0879,-4.50195 0.55664,1.79687 1.13281,3.62304 1.46484,4.50195 L 412.11914,185 h 1.9043 l 2.97851,-7.83203 c 0.33203,-0.9082 0.9375,-2.7832 1.45508,-4.55078 -0.0293,1.62109 -0.0781,3.47656 -0.0781,4.55078 V 185 h 2.21679 v -14.55078 h -3.30078 l -3.125,8.34961 c -0.2832,0.80078 -0.74219,2.42187 -1.08398,3.7207 -0.33203,-1.32812 -0.79102,-2.93945 -1.07422,-3.7207 l -3.17383,-8.34961 h -3.28125 z m 21.25195,0 h 9.21875 v -1.91406 h -6.99218 v -4.48242 h 6.44531 v -1.9043 h -6.44531 v -4.33594 h 6.93359 v -1.91406 h -9.16016 z m 27.11328,-4.15039 c 1.72852,0 3.125,-1.39649 3.125,-3.125 0,-1.72852 -1.39648,-3.125 -3.125,-3.125 -1.72851,0 -3.125,1.39648 -3.125,3.125 0,1.72851 1.39649,3.125 3.125,3.125 z M 472.19727,185 h 2.25585 v -7.76367 c 0,-0.75196 -0.0781,-2.25586 -0.16601,-4.08203 1.05469,1.95312 1.61133,2.95898 2.32422,4.10156 L 481.52344,185 h 2.57812 v -14.55078 h -2.25586 v 8.28125 c 0,0.83984 0.0391,2.19726 0.14649,3.60351 -0.64453,-1.39648 -1.29883,-2.5 -1.74805,-3.22265 l -5.47852,-8.66211 h -2.56835 z m 17.01367,0 h 2.41211 l 1.29882,-3.83789 h 5.72266 L 499.98242,185 h 2.41211 l -5.27344,-14.55078 h -2.73437 z m 4.3457,-5.69336 0.81055,-2.40234 c 0.36133,-1.11328 0.81054,-2.62696 1.37695,-4.70703 0.57617,2.06054 1.01563,3.54492 1.40625,4.70703 l 0.83984,2.40234 z M 510.21875,185 h 2.72461 l 5.19531,-14.55078 h -2.41211 l -2.7539,8.0957 c -0.36133,1.10352 -0.81055,2.59766 -1.37696,4.66797 -0.57617,-2.03125 -1.03515,-3.56445 -1.40625,-4.66797 l -2.83203,-8.0957 h -2.40234 z m 15.25586,-14.55078 h -2.22656 V 185 h 2.22656 z m 12.33594,14.74609 c 3.52539,0 6.07422,-2.30469 6.07422,-5.98633 v -1.66992 h -5.74219 v 1.83594 h 3.56445 c -0.0488,2.32422 -1.58203,3.78906 -3.88672,3.78906 -2.56836,0 -4.42383,-1.93359 -4.42383,-5.43945 0,-3.51563 1.88477,-5.43945 4.33594,-5.43945 1.91406,0 3.21289,1.06445 3.74024,2.76367 h 2.28515 c -0.48828,-2.83203 -2.91015,-4.79492 -6.04492,-4.79492 -3.76953,0 -6.52344,2.83203 -6.52344,7.48046 0,4.59961 2.66602,7.46094 6.6211,7.46094 z M 548.02734,185 h 2.41211 l 1.29883,-3.83789 h 5.72266 L 558.79883,185 h 2.41211 l -5.27344,-14.55078 h -2.73438 z m 4.34571,-5.69336 0.81054,-2.40234 c 0.36133,-1.11328 0.81055,-2.62696 1.37696,-4.70703 0.57617,2.06054 1.01562,3.54492 1.40625,4.70703 l 0.83984,2.40234 z m 11.48632,-6.94336 h 4.54102 V 185 h 2.23633 v -12.63672 h 4.52148 v -1.91406 H 563.85937 Z M 580.64844,185 h 9.21875 v -1.91406 H 582.875 v -4.48242 h 6.44531 v -1.9043 H 582.875 v -4.33594 h 6.93359 v -1.91406 h -9.16015 z m 27.11328,-4.15039 c 1.72851,0 3.125,-1.39649 3.125,-3.125 0,-1.72852 -1.39649,-3.125 -3.125,-3.125 -1.72852,0 -3.125,1.39648 -3.125,3.125 0,1.72851 1.39648,3.125 3.125,3.125 z M 626.03711,185 h 9.21875 v -1.91406 h -6.99219 v -4.48242 h 6.44531 v -1.9043 h -6.44531 v -4.33594 h 6.9336 v -1.91406 h -9.16016 z m 13.98633,0 h 2.55859 l 2.40234,-3.47656 c 0.73243,-1.06446 1.07422,-1.6211 1.51368,-2.46094 0.44922,0.85937 0.77148,1.40625 1.49414,2.46094 L 650.36523,185 h 2.59766 l -5.15625,-7.51953 4.83398,-7.03125 h -2.52929 l -1.96289,2.87109 c -0.80078,1.18164 -1.16211,1.83594 -1.63086,2.75391 -0.46875,-0.92774 -0.81055,-1.5625 -1.61133,-2.75391 l -1.92383,-2.87109 h -2.58789 l 4.84375,7.09961 z m 18.08789,0 h 2.22656 v -5.09766 h 2.96875 c 3.37891,0 5.05859,-2.04101 5.05859,-4.72656 0,-2.68555 -1.66992,-4.72656 -5.03906,-4.72656 h -5.21484 z m 2.22656,-6.98242 v -5.66406 h 2.73438 c 2.1582,0 3.0371,1.18164 3.0371,2.82226 0,1.64063 -0.8789,2.8418 -3.01757,2.8418 z m 19.66992,7.17773 c 3.76953,0 6.55274,-2.8125 6.55274,-7.46094 0,-4.66796 -2.78321,-7.48046 -6.55274,-7.48046 -3.77929,0 -6.57226,2.8125 -6.57226,7.48046 0,4.64844 2.79297,7.46094 6.57226,7.46094 z m 0,-2.03125 c -2.5,0 -4.36523,-1.91406 -4.36523,-5.42969 0,-3.52539 1.86523,-5.44921 4.36523,-5.44921 2.48047,0 4.34571,1.91406 4.34571,5.44921 0,3.51563 -1.86524,5.42969 -4.34571,5.42969 z M 692.27539,185 h 2.22656 v -5.49805 h 2.96875 c 0.0391,0 0.0879,0 0.12696,0 L 700.54687,185 h 2.5293 l -3.20312,-5.87891 c 1.76757,-0.66406 2.65625,-2.14843 2.65625,-4.10156 0,-2.68555 -1.66993,-4.57031 -5.03907,-4.57031 h -5.21484 z m 2.22656,-7.40234 v -5.24414 h 2.73438 c 2.14844,0 3.03711,1.02539 3.03711,2.66601 0,1.63086 -0.88867,2.57813 -3.01758,2.57813 z m 13,-5.23438 h 4.54102 V 185 h 2.23633 v -12.63672 h 4.52148 v -1.91406 h -11.29883 z"
     id="text8"
     fill="#8fa6d8"
     aria-label="REFRAME • NAVIGATE • EXPORT" />
</svg>
